<mxfile host="app.diagrams.net" modified="2023-07-06T03:41:42.947Z" agent="Mozilla/5.0 (Macintosh; Intel Mac OS X 10_15_7) AppleWebKit/537.36 (KHTML, like Gecko) Chrome/114.0.0.0 Safari/537.36" etag="QLEFdluz-GEaipLXaSiQ" version="21.3.8" type="github">
  <diagram id="kgpKYQtTHZ0yAKxKKP6v" name="Page-1">
    <mxGraphModel dx="1810" dy="1001" grid="1" gridSize="10" guides="1" tooltips="1" connect="1" arrows="1" fold="1" page="1" pageScale="1" pageWidth="850" pageHeight="1100" math="0" shadow="0">
      <root>
        <mxCell id="0" />
        <mxCell id="1" parent="0" />
        <mxCell id="jM6YjLZTypJjgVd53fpj-5" value="" style="edgeStyle=orthogonalEdgeStyle;rounded=0;orthogonalLoop=1;jettySize=auto;html=1;exitX=0.5;exitY=0;exitDx=0;exitDy=0;" parent="1" source="jM6YjLZTypJjgVd53fpj-2" target="jM6YjLZTypJjgVd53fpj-4" edge="1">
          <mxGeometry relative="1" as="geometry" />
        </mxCell>
        <mxCell id="jM6YjLZTypJjgVd53fpj-2" value="onChange(&#39;slot&#39;, { start: &#39;&#39;, end: &#39;&#39; })&lt;br&gt;DateRangeInput" style="rounded=0;whiteSpace=wrap;html=1;" parent="1" vertex="1">
          <mxGeometry x="40" y="240" width="200" height="60" as="geometry" />
        </mxCell>
        <mxCell id="jM6YjLZTypJjgVd53fpj-7" style="edgeStyle=orthogonalEdgeStyle;rounded=0;orthogonalLoop=1;jettySize=auto;html=1;exitX=0.75;exitY=1;exitDx=0;exitDy=0;entryX=0;entryY=0.5;entryDx=0;entryDy=0;" parent="1" source="jM6YjLZTypJjgVd53fpj-4" target="jM6YjLZTypJjgVd53fpj-6" edge="1">
          <mxGeometry relative="1" as="geometry" />
        </mxCell>
        <mxCell id="jM6YjLZTypJjgVd53fpj-8" value="trigger update" style="edgeLabel;html=1;align=center;verticalAlign=middle;resizable=0;points=[];" parent="jM6YjLZTypJjgVd53fpj-7" vertex="1" connectable="0">
          <mxGeometry x="-0.4054" y="-1" relative="1" as="geometry">
            <mxPoint as="offset" />
          </mxGeometry>
        </mxCell>
        <mxCell id="jM6YjLZTypJjgVd53fpj-4" value="setState(...)&lt;br&gt;FilterProvider" style="rounded=0;whiteSpace=wrap;html=1;" parent="1" vertex="1">
          <mxGeometry x="365" y="120" width="120" height="60" as="geometry" />
        </mxCell>
        <mxCell id="jM6YjLZTypJjgVd53fpj-10" value="" style="edgeStyle=orthogonalEdgeStyle;rounded=0;orthogonalLoop=1;jettySize=auto;html=1;" parent="1" source="jM6YjLZTypJjgVd53fpj-6" target="jM6YjLZTypJjgVd53fpj-9" edge="1">
          <mxGeometry relative="1" as="geometry" />
        </mxCell>
        <mxCell id="jM6YjLZTypJjgVd53fpj-6" value="useEffect(...)&lt;br&gt;TableView" style="rounded=0;whiteSpace=wrap;html=1;" parent="1" vertex="1">
          <mxGeometry x="550" y="240" width="120" height="60" as="geometry" />
        </mxCell>
        <mxCell id="jM6YjLZTypJjgVd53fpj-9" value="fetch(...)&lt;br&gt;TableView" style="whiteSpace=wrap;html=1;rounded=0;" parent="1" vertex="1">
          <mxGeometry x="550" y="350" width="120" height="60" as="geometry" />
        </mxCell>
      </root>
    </mxGraphModel>
  </diagram>
</mxfile>
